<svg xmlns="http://www.w3.org/2000/svg" viewBox="0 0 200 200">
  <!-- Clipboard background -->
  <rect x="50" y="30" width="100" height="140" rx="12" fill="#FFF4ED" stroke="#CC785C" stroke-width="3"/>
  
  <!-- Clipboard clip -->
  <rect x="80" y="20" width="40" height="18" rx="9" fill="#CC785C"/>
  <circle cx="100" cy="29" r="4" fill="#FFF4ED"/>
  
  <!-- Checklist items with hearts -->
  <!-- Item 1 -->
  <circle cx="65" cy="55" r="8" fill="white" stroke="#CC785C" stroke-width="2"/>
  <path d="M 61 55 L 63.5 58 L 69 52" stroke="#CC785C" stroke-width="2.5" fill="none" stroke-linecap="round" stroke-linejoin="round"/>
  <line x1="80" y1="55" x2="125" y2="55" stroke="#CC785C" stroke-width="2.5" stroke-linecap="round"/>
  <path d="M 138 52 C 136.5 52 135 53 135 54.5 C 135 53 133.5 52 132 52 C 130 52 129 53.5 129 55 C 129 57.5 135 62 135 62 C 135 62 141 57.5 141 55 C 141 53.5 140 52 138 52 Z" fill="#E07855"/>
  
  <!-- Item 2 -->
  <circle cx="65" cy="80" r="8" fill="white" stroke="#CC785C" stroke-width="2"/>
  <path d="M 61 80 L 63.5 83 L 69 77" stroke="#CC785C" stroke-width="2.5" fill="none" stroke-linecap="round" stroke-linejoin="round"/>
  <line x1="80" y1="80" x2="115" y2="80" stroke="#CC785C" stroke-width="2.5" stroke-linecap="round"/>
  <path d="M 131 77 C 129.5 77 128 78 128 79.5 C 128 78 126.5 77 125 77 C 123 77 122 78.5 122 80 C 122 82.5 128 87 128 87 C 128 87 134 82.5 134 80 C 134 78.5 133 77 131 77 Z" fill="#E07855"/>
  
  <!-- Item 3 -->
  <circle cx="65" cy="105" r="8" fill="white" stroke="#CC785C" stroke-width="2"/>
  <path d="M 61 105 L 63.5 108 L 69 102" stroke="#CC785C" stroke-width="2.5" fill="none" stroke-linecap="round" stroke-linejoin="round"/>
  <line x1="80" y1="105" x2="120" y2="105" stroke="#CC785C" stroke-width="2.5" stroke-linecap="round"/>
  <path d="M 136 102 C 134.5 102 133 103 133 104.5 C 133 103 131.5 102 130 102 C 128 102 127 103.5 127 105 C 127 107.5 133 112 133 112 C 133 112 139 107.5 139 105 C 139 103.5 138 102 136 102 Z" fill="#E07855"/>
  
  <!-- Item 4 (unchecked) -->
  <circle cx="65" cy="130" r="8" fill="white" stroke="#CC785C" stroke-width="2"/>
  <line x1="80" y1="130" x2="125" y2="130" stroke="#CCBDB5" stroke-width="2.5" stroke-linecap="round"/>
  
  <!-- Item 5 (unchecked) -->
  <circle cx="65" cy="155" r="8" fill="white" stroke="#CC785C" stroke-width="2"/>
  <line x1="80" y1="155" x2="115" y2="155" stroke="#CCBDB5" stroke-width="2.5" stroke-linecap="round"/>
</svg>